<svg xmlns="http://www.w3.org/2000/svg" viewBox="0 0 24 24" width="24" height="24">
  <defs>
    <linearGradient id="forkGrad" x1="0%" y1="0%" x2="100%" y2="100%">
      <stop offset="0%" style="stop-color:#00ffff;stop-opacity:1" />
      <stop offset="100%" style="stop-color:#ff6b9d;stop-opacity:1" />
    </linearGradient>
  </defs>
  
  <path d="M12 2C6.48 2 2 6.48 2 12c0 4.42 2.87 8.17 6.84 9.5.5.08.66-.23.66-.5v-1.69c-2.77.6-3.36-1.34-3.36-1.34-.46-1.16-1.11-1.47-1.11-1.47-.91-.62.07-.6.07-.6 1 .07 1.53 1.03 1.53 1.03.89 1.52 2.34 1.08 2.91.83.09-.65.35-1.09.63-1.34-2.22-.25-4.55-1.11-4.55-4.94 0-1.09.39-1.98 1.03-2.68-.1-.25-.45-1.27.1-2.64 0 0 .84-.27 2.75 1.02a9.68 9.68 0 0 1 5 0c1.91-1.29 2.75-1.02 2.75-1.02.55 1.37.2 2.39.1 2.64.65.71 1.03 1.6 1.03 2.68 0 3.84-2.34 4.68-4.56 4.93.36.31.68.92.68 1.85v2.75c0 .27.16.59.67.5C19.14 20.16 22 16.42 22 12A10 10 0 0 0 12 2z" 
        fill="url(#forkGrad)" />
</svg>